<svg width="20" height="20" viewBox="0 0 20 20" fill="none" xmlns="http://www.w3.org/2000/svg">
<g clip-path="url(#clip0)">
<path d="M19.9411 5.89444C19.9299 5.05291 19.7723 4.21974 19.4755 3.43222C19.2181 2.76794 18.825 2.16466 18.3213 1.66092C17.8175 1.15717 17.2143 0.764049 16.55 0.50666C15.7726 0.214834 14.9513 0.0570388 14.1211 0.039993C13.0522 -0.00778476 12.7133 -0.0211182 9.99998 -0.0211182C7.28664 -0.0211182 6.93887 -0.0211181 5.87775 0.039993C5.04793 0.0571641 4.22703 0.214957 3.44998 0.50666C2.7856 0.76387 2.18222 1.15693 1.67846 1.6607C1.17469 2.16446 0.781631 2.76784 0.524421 3.43222C0.232011 4.20903 0.0745577 5.03012 0.0588653 5.85999C0.0110875 6.92999 -0.00335693 7.26888 -0.00335693 9.98221C-0.00335693 12.6955 -0.00335694 13.0422 0.0588653 14.1044C0.075532 14.9355 0.232199 15.7555 0.524421 16.5344C0.782063 17.1986 1.17542 17.8017 1.67935 18.3053C2.18328 18.8088 2.78671 19.2017 3.45109 19.4589C4.22601 19.7624 5.04706 19.9315 5.87887 19.9589C6.94887 20.0067 7.28776 20.0211 10.0011 20.0211C12.7144 20.0211 13.0622 20.0211 14.1233 19.9589C14.9535 19.9425 15.7748 19.7851 16.5522 19.4933C17.2163 19.2356 17.8194 18.8424 18.3231 18.3387C18.8268 17.835 19.2201 17.2319 19.4778 16.5678C19.77 15.79 19.9266 14.97 19.9433 14.1378C19.9911 13.0689 20.0055 12.73 20.0055 10.0155C20.0033 7.30221 20.0033 6.95777 19.9411 5.89444ZM9.99331 15.1133C7.15553 15.1133 4.85664 12.8144 4.85664 9.97666C4.85664 7.13888 7.15553 4.83999 9.99331 4.83999C11.3556 4.83999 12.6622 5.38118 13.6255 6.34449C14.5888 7.3078 15.13 8.61433 15.13 9.97666C15.13 11.339 14.5888 12.6455 13.6255 13.6088C12.6622 14.5721 11.3556 15.1133 9.99331 15.1133ZM15.3344 5.84777C14.6711 5.84777 14.1366 5.31221 14.1366 4.64999C14.1366 4.49277 14.1676 4.33709 14.2278 4.19184C14.2879 4.04658 14.3761 3.9146 14.4873 3.80343C14.5985 3.69226 14.7305 3.60407 14.8757 3.5439C15.021 3.48374 15.1766 3.45277 15.3339 3.45277C15.4911 3.45277 15.6468 3.48374 15.792 3.5439C15.9373 3.60407 16.0693 3.69226 16.1804 3.80343C16.2916 3.9146 16.3798 4.04658 16.44 4.19184C16.5001 4.33709 16.5311 4.49277 16.5311 4.64999C16.5311 5.31221 15.9955 5.84777 15.3344 5.84777Z" fill="black"/>
<path d="M9.99334 13.3132C11.8361 13.3132 13.33 11.8193 13.33 9.97656C13.33 8.13377 11.8361 6.63989 9.99334 6.63989C8.15055 6.63989 6.65668 8.13377 6.65668 9.97656C6.65668 11.8193 8.15055 13.3132 9.99334 13.3132Z" fill="black"/>
</g>
<defs>
<clipPath id="clip0">
<rect width="20" height="20" fill="white"/>
</clipPath>
</defs>
</svg>
