<svg width="20" height="20" viewBox="0 0 20 20" fill="none" xmlns="http://www.w3.org/2000/svg">
<g clip-path="url(#clip0)">
<path d="M3.9206 0.0012207C1.76502 0.0012207 0.0012207 1.76502 0.0012207 3.92059V16.0843C0.0012207 18.2399 1.76502 20.0037 3.9206 20.0037H16.0844C18.2399 20.0037 20.0037 18.2399 20.0037 16.0843V3.92059C20.0037 1.76502 18.2399 0.0012207 16.0844 0.0012207H3.9206ZM6.16436 4.51433H10.11C10.9294 4.51433 11.5519 4.54431 11.9744 4.60871C12.3969 4.66989 12.7937 4.80103 13.1625 5.00059C13.5615 5.21557 13.8613 5.50507 14.0587 5.86371C14.2561 6.22447 14.3562 6.63913 14.3562 7.11059C14.3562 7.65547 14.2203 8.13981 13.9462 8.56497C13.6748 8.99012 13.2983 9.30276 12.8194 9.50496V9.56308C13.5084 9.70942 14.0611 10.0038 14.4756 10.4518C14.8908 10.9004 15.0981 11.5042 15.0981 12.2625C15.0981 12.8175 14.9933 13.307 14.7831 13.7268C14.573 14.1467 14.2916 14.4926 13.9356 14.7693C13.5158 15.0993 13.055 15.3321 12.55 15.4731C12.0482 15.6136 11.4108 15.6837 10.635 15.6837H6.16438V4.51435L6.16436 4.51433ZM8.95498 6.56183V8.92558H9.3081C9.787 8.92558 10.1254 8.92066 10.3175 8.91059C10.5096 8.90051 10.7095 8.84904 10.9144 8.75432C11.1368 8.64951 11.2934 8.50397 11.3775 8.31933C11.4621 8.13255 11.5056 7.91687 11.5056 7.67371C11.5056 7.49227 11.4594 7.30751 11.3668 7.11809C11.2748 6.92865 11.1318 6.79019 10.9343 6.70559C10.7502 6.62365 10.5325 6.58045 10.2787 6.57247C10.0254 6.56447 9.64908 6.56185 9.14996 6.56185H8.95496L8.95498 6.56183ZM8.95498 10.8387V13.635H9.10624C9.8363 13.635 10.3405 13.6295 10.6194 13.6193C10.8982 13.6093 11.1854 13.543 11.4744 13.4175C11.7308 13.3073 11.915 13.1459 12.0331 12.9331C12.1507 12.7208 12.2094 12.4799 12.2094 12.2112C12.2094 11.8653 12.141 11.5966 12 11.4018C11.8595 11.2049 11.6494 11.0587 11.37 10.9587C11.2008 10.8922 10.965 10.8561 10.6681 10.8487C10.3712 10.8413 9.97214 10.8387 9.4725 10.8387H8.955H8.95498Z" fill="black"/>
</g>
<defs>
<clipPath id="clip0">
<rect width="20" height="20" fill="white"/>
</clipPath>
</defs>
</svg>
