<svg width="132" height="72" viewBox="0 0 132 72" fill="none" xmlns="http://www.w3.org/2000/svg">
<path d="M41.9458 0H0.00640869V8.11652H41.9458V0Z" fill="#161712"/>
<path d="M41.9429 11.1674H0.00354004V19.2839H41.9429V11.1674Z" fill="#161712"/>
<path d="M41.9429 22.3321H0.00354004V30.4486H41.9429V22.3321Z" fill="#161712"/>
<path d="M41.9429 33.499H0.00354004V41.6155H41.9429V33.499Z" fill="#161712"/>
<path d="M41.9429 44.6629H0.00354004V52.7795H41.9429V44.6629Z" fill="#161712"/>
<path d="M90.0399 0.0295715L90.0399 52.8717L98.2202 52.8717L98.2202 0.0295715L90.0399 0.0295715Z" fill="#161712"/>
<path d="M101.294 0.0295715L101.294 52.8717L109.474 52.8717L109.474 0.0295715L101.294 0.0295715Z" fill="#161712"/>
<path d="M112.547 0.0295715L112.547 52.8717L120.727 52.8717L120.727 0.0295715L112.547 0.0295715Z" fill="#161712"/>
<path d="M123.8 0.0295715L123.8 52.8717L131.981 52.8717L131.981 0.0295715L123.8 0.0295715Z" fill="#161712"/>
<path fill-rule="evenodd" clip-rule="evenodd" d="M45.0256 0.071167H50.6664L45.0256 5.66794V0.071167Z" fill="#161712"/>
<path fill-rule="evenodd" clip-rule="evenodd" d="M55.0146 0.071167H66.5809L45.0256 21.4583V9.97926L55.0146 0.071167Z" fill="#161712"/>
<path fill-rule="evenodd" clip-rule="evenodd" d="M70.9275 0.071167H82.4968L45.0256 37.2501V25.771L70.9275 0.071167Z" fill="#161712"/>
<path fill-rule="evenodd" clip-rule="evenodd" d="M86.8434 0.071167H86.965V11.4266L45.1472 52.9183H45.0256V41.5628L86.8434 0.071167Z" fill="#161712"/>
<path fill-rule="evenodd" clip-rule="evenodd" d="M86.9657 15.7386V27.2176L61.0638 52.9175H49.4975L86.9657 15.7386Z" fill="#161712"/>
<path fill-rule="evenodd" clip-rule="evenodd" d="M86.9661 31.5302V43.0063L76.9801 52.9173H65.4108L86.9661 31.5302Z" fill="#161712"/>
<path fill-rule="evenodd" clip-rule="evenodd" d="M86.9675 47.3193V52.919H81.3267L86.9675 47.3193Z" fill="#161712"/>
<path d="M9.11132 60.9107V71.8396H7.09515V62.6464H2.01617V71.8396H0V60.9107H9.10836H9.11132ZM14.4868 60.9107C15.0798 60.9107 15.6046 60.9401 16.0582 60.996C16.5119 61.0519 16.9477 61.1607 17.3628 61.3225C17.7779 61.4814 18.1218 61.6991 18.3857 61.9727C18.6526 62.2463 18.8631 62.6052 19.0173 63.0494C19.1744 63.4936 19.2515 64.0202 19.2515 64.6292C19.2515 65.394 19.1388 66.0295 18.9164 66.5355C18.6941 67.0415 18.3531 67.4268 17.9024 67.6916C17.4488 67.9564 16.9566 68.1358 16.4259 68.2329C15.8951 68.33 15.2488 68.38 14.4898 68.38H12.8976V71.8367H10.8814V60.9077H14.4898L14.4868 60.9107ZM14.5965 66.6473C15.5245 66.6473 16.1946 66.5178 16.6127 66.2589C17.0278 66.0001 17.2383 65.4588 17.2383 64.6321C17.2383 63.8143 17.0307 63.2818 16.6127 63.0288C16.1946 62.7758 15.5245 62.6493 14.5965 62.6493H12.8946V66.6473H14.5965ZM21.8221 70.4069C20.8377 69.3479 20.3456 68.0005 20.3456 66.3678C20.3456 64.7351 20.8377 63.3906 21.8221 62.3375C22.8065 61.2843 24.1259 60.7577 25.7833 60.7577C27.4407 60.7577 28.7571 61.2872 29.7356 62.3463C30.714 63.4054 31.2032 64.7468 31.2032 66.3678C31.2032 68.0005 30.714 69.3479 29.7356 70.4069C28.7571 71.466 27.4377 71.9955 25.7833 71.9955C24.1259 71.9955 22.8065 71.466 21.8221 70.4069ZM23.2364 63.5407C22.6523 64.2379 22.3617 65.1822 22.3617 66.3707C22.3617 67.5592 22.6523 68.5036 23.2364 69.2067C23.8205 69.9098 24.6685 70.2598 25.7833 70.2598C26.8981 70.2598 27.7431 69.9098 28.3213 69.2067C28.8995 68.5036 29.1871 67.5592 29.1871 66.3707C29.1871 65.1822 28.8965 64.2379 28.3124 63.5407C27.7283 62.8435 26.8863 62.4934 25.7803 62.4934C24.6655 62.4934 23.8175 62.8435 23.2334 63.5407H23.2364ZM32.5019 66.3707C32.5019 64.7468 32.997 63.4083 33.9873 62.3492C34.9776 61.2902 36.3 60.7606 37.9544 60.7606C39.4429 60.7606 40.6526 61.1519 41.5776 61.9315C42.5057 62.7111 43.0512 63.779 43.2172 65.1322H41.2011C41.0765 64.285 40.7296 63.6348 40.1633 63.1788C39.597 62.7228 38.8706 62.4963 37.9841 62.4963C36.89 62.4963 36.0391 62.8405 35.4283 63.526C34.8205 64.2144 34.5151 65.1616 34.5151 66.3707C34.5151 67.5798 34.8205 68.53 35.4283 69.2243C36.0361 69.9156 36.89 70.2628 37.9841 70.2628C38.8706 70.2628 39.597 70.0333 40.1633 69.5744C40.7296 69.1155 41.0765 68.4624 41.2011 67.6122H43.2172C43.0512 68.9772 42.5027 70.048 41.5776 70.8276C40.6496 71.6072 39.4429 71.9985 37.9544 71.9985C36.297 71.9985 34.9747 71.4689 33.9873 70.4099C32.997 69.3508 32.5019 68.0034 32.5019 66.3707ZM52.7644 60.9136V62.6493H49.0938V71.8425H47.0776V62.6493H43.3744V60.9136H52.7644ZM60.5771 71.8425L59.4356 68.0299H54.9674L53.8259 71.8425H51.7949L55.1216 60.9136H59.2606L62.6051 71.8425H60.5741H60.5771ZM55.4833 66.2942H58.9049L57.452 61.4284H56.9361L55.4833 66.2942ZM72.3865 60.9166V71.8455H70.3703V67.1474H68.7456L66.9636 71.0218C66.6938 71.5689 66.2253 71.8425 65.5582 71.8425H63.3879V70.1069H65.324L66.6997 67.0532C65.742 66.9179 65.0067 66.6149 64.4968 66.1383C63.9868 65.6617 63.7318 64.9557 63.7318 64.0143C63.7318 62.867 64.1143 62.0639 64.8792 61.605C65.6442 61.146 66.7472 60.9136 68.1822 60.9136H72.3836L72.3865 60.9166ZM70.3703 65.4117V62.6522H67.9806C67.1889 62.6522 66.6197 62.7405 66.2698 62.917C65.9199 63.0935 65.745 63.4583 65.745 64.0173C65.745 64.585 65.9199 64.9616 66.2698 65.141C66.6197 65.3205 67.1889 65.4117 67.9806 65.4117H70.3703ZM85.7437 71.8455L81.9782 67.3504C81.7499 67.5063 81.4682 67.5975 81.1332 67.6298V71.8455H79.117V60.9166H81.1332V65.5676L84.4598 61.5991C84.8334 61.1431 85.3078 60.9166 85.8801 60.9166H87.9259V62.6522H86.0342L83.2531 65.9383L88.1275 71.8455H85.7377H85.7437ZM96.6784 60.9166H98.8191L95.0388 68.48V70.8511C95.0388 71.6454 94.6267 72.0279 93.8054 71.9985L90.1348 71.8749V70.1392L93.0256 70.2481V68.48L89.2453 60.9166H91.386L93.7757 65.9853V66.962H94.2916V65.9853L96.6814 60.9166H96.6784ZM99.5989 71.8455L103.364 66.6531V66.0942L99.5989 60.9166H101.912L105.051 65.3028L108.191 60.9166H110.504L106.724 66.0942V66.6531L110.504 71.8455H108.191L105.051 67.4445L101.912 71.8455H99.5989ZM119.58 60.9166H121.578V71.8455H119.58V67.3651H113.659V71.8455H111.643V60.9166H113.659V65.6294H119.58V60.9166ZM132 60.9166V71.8455H129.984V67.1474H128.359L126.577 71.0218C126.307 71.5689 125.839 71.8425 125.172 71.8425H123.001V70.1069H124.937L126.313 67.0532C125.356 66.9179 124.62 66.6149 124.11 66.1383C123.6 65.6617 123.345 64.9557 123.345 64.0143C123.345 62.867 123.728 62.0639 124.493 61.605C125.258 61.146 126.361 60.9136 127.796 60.9136H131.997L132 60.9166ZM129.984 65.4117V62.6522H127.594C126.802 62.6522 126.233 62.7405 125.883 62.917C125.533 63.0935 125.358 63.4583 125.358 64.0173C125.358 64.585 125.533 64.9616 125.883 65.141C126.233 65.3205 126.802 65.4117 127.594 65.4117H129.984Z" fill="#161712"/>
</svg>
